<svg xmlns="http://www.w3.org/2000/svg" width="70.972" height="80.691" viewBox="0 0 70.972 80.691">
  <g id="Grupo_77" data-name="Grupo 77" transform="translate(-2833.004 82)">
    <path id="Trazado_489" data-name="Trazado 489" d="M5.252,9.046,83.8.03A3.668,3.668,0,0,1,87.95,4.365a6.312,6.312,0,0,1-5.221,5.41L4.177,18.792A3.668,3.668,0,0,1,.031,14.457,6.312,6.312,0,0,1,5.252,9.046Z" transform="matrix(0.643, 0.766, -0.766, 0.643, 2847.422, -82)" fill="#fdfdfd"/>
    <path id="Trazado_490" data-name="Trazado 490" d="M4.133.028l77.619,8.8A6.275,6.275,0,0,1,86.9,14.282c.29,2.722-1.547,4.694-4.1,4.4L5.182,9.885A6.275,6.275,0,0,1,.03,4.432C-.26,1.71,1.577-.262,4.133.028Z" transform="translate(2902.122 -70.738) rotate(127)" fill="#fdfdfd"/>
  </g>
</svg>
