<svg xmlns="http://www.w3.org/2000/svg" xmlns:xlink="http://www.w3.org/1999/xlink" width="870.366" height="620.295" viewBox="0 0 870.366 620.295">
  <defs>
    <linearGradient id="linear-gradient" x1="0.119" y1="0.262" x2="3.275" gradientUnits="objectBoundingBox">
      <stop offset="0" stop-color="#ffb3a6"/>
      <stop offset="1" stop-color="#805a53"/>
    </linearGradient>
    <linearGradient id="linear-gradient-2" x1="0.838" y1="-0.151" x2="0.33" y2="0.729" gradientUnits="objectBoundingBox">
      <stop offset="0" stop-color="#606060"/>
      <stop offset="0.01" stop-color="#4d4d4d"/>
      <stop offset="1" stop-color="#606060"/>
    </linearGradient>
  </defs>
  <g id="Designer__Isometric_2_" data-name="Designer _Isometric (2)" transform="translate(-15.909 -21.678)">
    <g id="Layer_2" data-name="Layer 2" transform="translate(15.909 21.678)">
      <path id="Trazado_250" data-name="Trazado 250" d="M463.953,572.79l405.4-239.6c12.907-7.257,23.969-19.147,11.394-26.948L473.9,71.775c-6.1-3.782-15.365-6.264-21.582-2.648L26.832,316.1c-12.907,7.493-15.223,28.366-2.364,35.93L410.531,572.364a53.9,53.9,0,0,0,53.423.425Z" transform="translate(-15.909 40.631)" fill="#ffb3a6"/>
      <path id="Trazado_251" data-name="Trazado 251" d="M168.038,215.95,103.6,251.715s60.207,47.466,87.226,58.907l64.509-38.412" transform="translate(103.687 243.277)" fill="#efa89c"/>
      <path id="Trazado_252" data-name="Trazado 252" d="M166.928,155.46,102.49,191.225s15.436,24.418,42.549,35.765l69.639-38.412" transform="translate(102.174 160.779)" fill="url(#linear-gradient)"/>
      <path id="Trazado_253" data-name="Trazado 253" d="M341.069,275.852s77.888-43.613,78.361-44.346l-121-60.916L230.37,209.877Z" transform="translate(276.581 181.414)" fill="#efa89c"/>
      <path id="Trazado_254" data-name="Trazado 254" d="M411.961,140.982l98.808,61.247a6.122,6.122,0,0,1-.213,10.543L360.6,297.515a13.734,13.734,0,0,1-13.71,0L248.526,239.7c-7.092-5.862-5.153-14.561,0-17.4l149.087-81.505a13.947,13.947,0,0,1,14.349.189Z" transform="translate(295.041 138.192)" fill="#d7e1e3"/>
      <path id="Trazado_255" data-name="Trazado 255" d="M411.469,139.17l98.808,61.247a6.122,6.122,0,0,1-.213,10.543L360.127,295.774a13.734,13.734,0,0,1-13.71,0l-98.359-57.819a7.612,7.612,0,0,1,0-13.167l149.087-85.713A13.947,13.947,0,0,1,411.469,139.17Z" transform="translate(295.533 135.797)" fill="#fff"/>
      <path id="Trazado_256" data-name="Trazado 256" d="M399.737,139.4l99.3,62.5-148.52,84.98L248.05,226.626Z" transform="translate(300.694 138.876)" fill="#606060"/>
      <ellipse id="Elipse_233" data-name="Elipse 233" cx="3.522" cy="1.655" rx="3.522" ry="1.655" transform="translate(589.945 396.468)" fill="#383097"/>
      <path id="Trazado_257" data-name="Trazado 257" d="M323.4,197.8s12.93-24.04,13-24.158l-2.222-1.111L306.71,188.391Z" transform="translate(380.696 184.06)" fill="url(#linear-gradient-2)"/>
      <path id="Trazado_258" data-name="Trazado 258" d="M419.431,146.842a1.344,1.344,0,0,1,0-.52,14.371,14.371,0,0,0-4.3-1.442l-92.19,55.03s-5.531,4.326,4.728,10.165l93.584-55.621A19.645,19.645,0,0,0,419.431,146.842Z" transform="translate(400.799 146.35)" fill="#ccc"/>
      <path id="Trazado_259" data-name="Trazado 259" d="M328.3,168.15s-10.732,12.008-10.921,12.788,15.53-2.624,15.53-2.624" transform="translate(395.248 178.086)" fill="#ccc"/>
      <ellipse id="Elipse_234" data-name="Elipse 234" cx="3.546" cy="5.65" rx="3.546" ry="5.65" transform="translate(812.996 292.811) rotate(-30)" fill="#f2f2f2"/>
      <path id="Trazado_260" data-name="Trazado 260" d="M215.849,135.68l38.72,18.651a8.912,8.912,0,0,1,.615,15.719L163.4,223.591a8.912,8.912,0,0,1-11.985-2.884l-22.291-34.63" transform="translate(138.493 133.802)" fill="#56403d"/>
      <path id="Trazado_261" data-name="Trazado 261" d="M86.172,201.476,395.031,23.55a13.923,13.923,0,0,1,20.9,12.079V220.718a11.583,11.583,0,0,1-5.791,10.023L80.925,420.769a7.47,7.47,0,0,1-11.2-6.477V229.913A32.881,32.881,0,0,1,86.172,201.476Z" transform="translate(57.481 -21.678)" fill="#d7e1e3"/>
      <path id="Trazado_262" data-name="Trazado 262" d="M386.16,28.907,86.709,201.207a20.991,20.991,0,0,0-10.519,18.2V358.166a7.588,7.588,0,0,0,11.346,6.571L392.944,189.483a7.47,7.47,0,0,0,3.759-6.477V35.077a7.092,7.092,0,0,0-10.543-6.17Z" transform="translate(66.305 -13.041)" fill="#fff"/>
      <ellipse id="Elipse_235" data-name="Elipse 235" cx="7.446" cy="6.501" rx="7.446" ry="6.501" transform="translate(320.06 276.29) rotate(-79.1)" fill="#ab643c"/>
      <path id="Trazado_263" data-name="Trazado 263" d="M352.26,170.3l80.8,46.166a5.555,5.555,0,0,1,0,9.621L208.634,355.2a17.918,17.918,0,0,1-17.894,0L115.1,311.54a5.791,5.791,0,0,1,0-10.023l227.07-131.169A10.046,10.046,0,0,1,352.26,170.3Z" transform="translate(115.427 179.197)" fill="#974c26"/>
      <path id="Trazado_264" data-name="Trazado 264" d="M172.025,200.67,195.1,214.333l-17.114,9.952c-4.728-2.813-18.674-10.992-23.142-13.616Z" transform="translate(173.57 222.438)" fill="#fff"/>
      <path id="Trazado_265" data-name="Trazado 265" d="M185.347,194.46l23.071,13.663-21.676,12.6c-3.782-2.2-17.752-10.448-23.142-13.616Z" transform="translate(185.518 213.969)" fill="#fff"/>
      <path id="Trazado_266" data-name="Trazado 266" d="M223.505,171.91l23.426,13.45-20.849,12.1c-3.309-1.915-17.445-10.259-23.142-13.616Z" transform="translate(239.171 183.214)" fill="#fff"/>
      <path id="Trazado_267" data-name="Trazado 267" d="M200.675,184l23.071,13.663-17.114,9.928c-4.042-2.364-17.965-10.566-23.142-13.616Z" transform="translate(212.644 199.703)" fill="#fff"/>
      <path id="Trazado_268" data-name="Trazado 268" d="M214.052,177.82l23.071,13.663-21.771,12.6c-2.553-1.466-17.067-10.023-23.142-13.616Z" transform="translate(224.537 191.274)" fill="#fff"/>
      <path id="Trazado_269" data-name="Trazado 269" d="M162.842,205.76l23.071,13.663-16.381,9.455c-4.917-2.884-18.769-11.039-23.142-13.616Z" transform="translate(162.046 229.38)" fill="#fff"/>
      <path id="Trazado_270" data-name="Trazado 270" d="M192.5,189.12l23.071,13.663L197.442,213.3c-4.255-2.364-18.131-10.661-23.142-13.616Z" transform="translate(200.111 206.686)" fill="#fff"/>
      <path id="Trazado_271" data-name="Trazado 271" d="M157.447,210.67l23.071,13.663-21.676,12.6c-4.539-2.647-18.367-10.8-23.142-13.616Z" transform="translate(147.467 236.076)" fill="#fff"/>
      <path id="Trazado_272" data-name="Trazado 272" d="M156.853,216.88l23.071,13.663-38.885,22.575-23.449-13.45Z" transform="translate(122.767 244.546)" fill="#fff"/>
      <path id="Trazado_273" data-name="Trazado 273" d="M240.127,179.29l23.426,13.45-30.281,17.587c-3.971-2.364-17.894-10.519-23.142-13.616Z" transform="translate(248.977 193.279)" fill="#fff"/>
      <path id="Trazado_274" data-name="Trazado 274" d="M207.855,193.73l23.071,13.663-17.114,9.952c-4.586-2.671-18.414-10.826-23.142-13.616Z" transform="translate(222.437 212.973)" fill="#fff"/>
      <path id="Trazado_275" data-name="Trazado 275" d="M192.547,204.16l23.071,13.663-21.676,12.6c-4.349-2.529-18.2-10.708-23.142-13.616Z" transform="translate(195.337 227.198)" fill="#fff"/>
      <path id="Trazado_276" data-name="Trazado 276" d="M199.682,198.82l23.071,13.663L204.622,223c-4.728-2.766-18.6-10.945-23.142-13.616Z" transform="translate(209.903 219.915)" fill="#fff"/>
      <path id="Trazado_277" data-name="Trazado 277" d="M179.205,210.37l23.071,13.663-17.114,9.952c-5.3-3.1-19.218-11.323-23.142-13.616Z" transform="translate(183.363 235.667)" fill="#fff"/>
      <path id="Trazado_278" data-name="Trazado 278" d="M170.022,215.46l23.071,13.663-16.381,9.455c-5.39-3.144-19.336-11.394-23.142-13.616Z" transform="translate(171.838 242.609)" fill="#fff"/>
      <path id="Trazado_279" data-name="Trazado 279" d="M221.177,187.52l23.071,13.663-21.676,12.576c-3.428-1.986-17.54-10.306-23.142-13.616Z" transform="translate(234.384 204.504)" fill="#fff"/>
      <path id="Trazado_280" data-name="Trazado 280" d="M164.627,220.37,187.7,234.033l-21.676,12.6c-5.011-2.931-18.911-11.11-23.142-13.616Z" transform="translate(157.259 249.306)" fill="#fff"/>
      <path id="Trazado_281" data-name="Trazado 281" d="M181.649,240.257,152.2,257.347,128.77,243.9l29.808-17.327Z" transform="translate(138.015 257.761)" fill="#fff"/>
      <path id="Trazado_282" data-name="Trazado 282" d="M170.074,231.37l17.161,10.188-19.9,11.512-17.421-10Z" transform="translate(166.847 264.308)" fill="#fff"/>
      <path id="Trazado_283" data-name="Trazado 283" d="M175.37,247.425l-16.925,9.81L141,247.259l17.232-10Z" transform="translate(154.695 272.341)" fill="#fff"/>
      <path id="Trazado_284" data-name="Trazado 284" d="M246.605,186.88l17.965,9.952-20.376,11.819L226.56,198.51Z" transform="translate(271.385 203.631)" fill="#fff"/>
      <path id="Trazado_285" data-name="Trazado 285" d="M237.661,192.74l17.327,10.283-21.747,12.623L215.63,205.528Z" transform="translate(256.478 211.623)" fill="#fff"/>
      <path id="Trazado_286" data-name="Trazado 286" d="M287.589,199.09l17.3,10.283-127.364,73.8L160.06,273.149Z" transform="translate(180.69 220.283)" fill="#fff"/>
      <path id="Trazado_287" data-name="Trazado 287" d="M257.154,107,224.06,126.549s10.212,17.918,35.458,28.508l38.436-20.66" transform="translate(267.975 94.687)" fill="#eda69a"/>
      <ellipse id="Elipse_236" data-name="Elipse 236" cx="30.612" cy="21.558" rx="30.612" ry="21.558" transform="translate(521.347 187.575)" fill="#d7e1e3"/>
      <ellipse id="Elipse_237" data-name="Elipse 237" cx="22.929" cy="9.384" rx="22.929" ry="9.384" transform="translate(529.053 187.008)" fill="#974c26"/>
      <path id="Trazado_288" data-name="Trazado 288" d="M250.552,150.307c1.8-2.529,3.617-5.177,5.508-8.155,2.364-3.806,4.728-7.682,6.784-11.7a77.218,77.218,0,0,0,4.94-11.063,92.486,92.486,0,0,0,3.617-12.694c.236-1.135.425-2.364.638-3.4V101.9c.213-2.364.355-4.728.378-6.95a58.5,58.5,0,0,0-4.562-23.426A101.03,101.03,0,0,0,251.5,111.54q-.236,1.276-.449,2.577s-.236,1.56-.331,2.2l-.236,2.151q-.165,1.631-.307,3.286c-.331,4.231-.5,8.463-.473,12.694C249.89,139.74,250.127,145.035,250.552,150.307Zm9.739-63.256q.827-.946,1.726-1.844h0a3.807,3.807,0,0,0,0,1.655,5.248,5.248,0,0,0-1.7.189Z" transform="translate(302.943 46.298)" fill="#999a1c"/>
      <path id="Trazado_289" data-name="Trazado 289" d="M266.448,148.7c.165-3.1.236-6.311.213-9.834,0-4.515-.213-9.006-.615-13.5a77.232,77.232,0,0,0-1.82-11.985,92.469,92.469,0,0,0-3.806-12.647c-.425-1.087-.851-2.151-1.324-3.215-.213-.5-.165-.449-.118-.378l-.473-.875c-1.087-2.057-2.2-4.089-3.428-6.051A58.5,58.5,0,0,0,238.532,72.96a101.031,101.031,0,0,0,7.872,42.549q.5,1.206,1.016,2.364l.922,2.033.969,1.962q.733,1.466,1.513,2.931,3.014,5.6,6.453,10.945C260.161,140.211,263.234,144.513,266.448,148.7Zm-26-58.481q.189-1.253.449-2.364h0a3.806,3.806,0,0,0,.8,1.442,5.249,5.249,0,0,0-1.253.946Z" transform="translate(287.638 48.262)" fill="#999a1c"/>
      <path id="Trazado_290" data-name="Trazado 290" d="M273.16,124.125c-.922-1.726-1.915-3.475-3.049-5.39-1.466-2.364-3.026-4.728-4.728-7.092a48.574,48.574,0,0,0-4.917-5.862,58.18,58.18,0,0,0-6.146-5.6l-1.655-1.347c-.284-.189-.236-.189-.189-.165l-.544-.331c-1.253-.756-2.506-1.489-3.806-2.151A36.8,36.8,0,0,0,233.66,92.19a63.54,63.54,0,0,0,17.965,20.4l1.324.969,1.135.8,1.158.733,1.773,1.087q3.428,2.057,7.092,3.829A92.118,92.118,0,0,0,273.16,124.125Zm-32.9-23.166q-.307-.733-.567-1.489h0a2.364,2.364,0,0,0,.9.52,3.31,3.31,0,0,0-.331.969Z" transform="translate(281.068 74.489)" fill="#999a1c"/>
      <path id="Trazado_291" data-name="Trazado 291" d="M250.552,150.307c1.8-2.529,3.617-5.177,5.508-8.155,2.364-3.806,4.728-7.682,6.784-11.7a77.218,77.218,0,0,0,4.94-11.063,92.486,92.486,0,0,0,3.617-12.694c.236-1.135.425-2.364.638-3.4V101.9c.213-2.364.355-4.728.378-6.95a58.5,58.5,0,0,0-4.562-23.426A101.03,101.03,0,0,0,251.5,111.54q-.236,1.276-.449,2.577s-.236,1.56-.331,2.2l-.236,2.151q-.165,1.631-.307,3.286c-.331,4.231-.5,8.463-.473,12.694C249.89,139.74,250.127,145.035,250.552,150.307Zm9.739-63.256q.827-.946,1.726-1.844h0a3.807,3.807,0,0,0,0,1.655,5.248,5.248,0,0,0-1.7.189Z" transform="translate(302.943 46.298)" fill="#999a1c"/>
      <path id="Trazado_292" data-name="Trazado 292" d="M266.448,148.7c.165-3.1.236-6.311.213-9.834,0-4.515-.213-9.006-.615-13.5a77.232,77.232,0,0,0-1.82-11.985,92.469,92.469,0,0,0-3.806-12.647c-.425-1.087-.851-2.151-1.324-3.215-.213-.5-.165-.449-.118-.378l-.473-.875c-1.087-2.057-2.2-4.089-3.428-6.051A58.5,58.5,0,0,0,238.532,72.96a101.031,101.031,0,0,0,7.872,42.549q.5,1.206,1.016,2.364l.922,2.033.969,1.962q.733,1.466,1.513,2.931,3.014,5.6,6.453,10.945C260.161,140.211,263.234,144.513,266.448,148.7Zm-26-58.481q.189-1.253.449-2.364h0a3.806,3.806,0,0,0,.8,1.442,5.249,5.249,0,0,0-1.253.946Z" transform="translate(287.638 48.262)" fill="#999a1c"/>
      <path id="Trazado_293" data-name="Trazado 293" d="M273.16,124.125c-.922-1.726-1.915-3.475-3.049-5.39-1.466-2.364-3.026-4.728-4.728-7.092a48.574,48.574,0,0,0-4.917-5.862,58.18,58.18,0,0,0-6.146-5.6l-1.655-1.347c-.284-.189-.236-.189-.189-.165l-.544-.331c-1.253-.756-2.506-1.489-3.806-2.151A36.8,36.8,0,0,0,233.66,92.19a63.54,63.54,0,0,0,17.965,20.4l1.324.969,1.135.8,1.158.733,1.773,1.087q3.428,2.057,7.092,3.829A92.118,92.118,0,0,0,273.16,124.125Zm-32.9-23.166q-.307-.733-.567-1.489h0a2.364,2.364,0,0,0,.9.52,3.31,3.31,0,0,0-.331.969Z" transform="translate(281.068 74.489)" fill="#999a1c"/>
      <path id="Trazado_294" data-name="Trazado 294" d="M103.72,214.39l109.186-58.079L147.38,93.74Z" transform="translate(103.851 76.603)" fill="#e88831"/>
      <circle id="Elipse_238" data-name="Elipse 238" cx="41.556" cy="41.556" r="41.556" transform="translate(360.275 70.636)" fill="#7acc92"/>
      <path id="Trazado_295" data-name="Trazado 295" d="M105.651,110.707c-6.619-3.782-12.576,6.43-5.957,10.212,20.542,11.819,4.089,37.538-11.2,44.913-6.855,3.286-.875,13.5,5.957,10.212C118.321,164.531,134.017,126.71,105.651,110.707Z" transform="translate(78.944 98.616)" fill="#56403d"/>
      <path id="Trazado_296" data-name="Trazado 296" d="M196.938,106.717c-6.288-29.382-45.835-11.346-38.956,15.294,2.978,11.536,15.554,18.249,26.428,12.528a26,26,0,0,0,12.528-27.822Zm-11.394,7.375a13.072,13.072,0,0,1-7.257,10.259c-9.03,3.451-8.817-8.013-6.6-13.5,3.971-10.165,15.79-8.864,13.8,3.333Z" transform="translate(176.764 73.695)" fill="#56403d"/>
      <path id="Trazado_297" data-name="Trazado 297" d="M166.26,329.228a9.455,9.455,0,0,1,5.342-7.092l17.138-9.881,26.475-15.341,31.628-18.32L280.5,259.117l32.55-18.911,28.366-16.381,20.92-12.1,10.992-6.359c0,.236.378.236.615.165a7.824,7.824,0,0,1,9.455,9.455c-1.276,4.964-5.508,9.337-9.455,12.363a380.108,380.108,0,0,1-40,25.1v-4.94c9.314-5.106,29.406-16.547,37.821-25.293l-4.018,2.364-11.063,6.477L340.026,240.8l-20.8,12.15-23.568,13.876-24.726,14.443-24.489,14.3L223.654,308.9l-19.549,11.512L189.047,329.2c-4.586,2.695-9.574,6.335-14.916,7.375a7.352,7.352,0,0,1-7.872-7.351Z" transform="translate(189.145 228.76)" fill="#d7e1e3"/>
      <path id="Trazado_298" data-name="Trazado 298" d="M243.316,151.1,208,172.138s23.189,22.22,50.208,33.59l32.834-21.44" transform="translate(246.072 154.833)" fill="#eda69a"/>
      <path id="Trazado_299" data-name="Trazado 299" d="M221.51,146.714v16.523l51.035,31.6L333.816,157.4V143.31" transform="translate(264.497 144.208)" fill="#e54c3c"/>
      <path id="Trazado_300" data-name="Trazado 300" d="M333.816,161.272,281.788,130.14,221.51,164.676l52.028,31.6Z" transform="translate(264.497 126.247)" fill="#f5604b"/>
    </g>
  </g>
</svg>
