<svg xmlns="http://www.w3.org/2000/svg" xmlns:xlink="http://www.w3.org/1999/xlink" width="1179" height="944" viewBox="0 0 1179 944">
  <defs>
    <linearGradient id="linear-gradient" x1="0.239" y1="0.798" x2="0.816" y2="0.147" gradientUnits="objectBoundingBox">
      <stop offset="0" stop-color="#fff" stop-opacity="0"/>
      <stop offset="0.98" stop-color="#aa6800"/>
    </linearGradient>
    <linearGradient id="linear-gradient-2" x1="0.162" y1="0.971" x2="0.337" y2="0.736" xlink:href="#linear-gradient"/>
    <linearGradient id="linear-gradient-3" x1="0.339" y1="0.891" x2="0.533" y2="0.518" xlink:href="#linear-gradient"/>
  </defs>
  <g id="Grupo_17" data-name="Grupo 17" transform="translate(-509 -5700)">
    <g id="Notes_Isometric" transform="translate(591.36 5798.292)">
      <path id="Trazado_396" data-name="Trazado 396" d="M45.64,290.481l532.406,296.8L870.17,391.557,366.34,113.95Z" transform="translate(0 188.735)" fill="#faefec"/>
      <path id="Trazado_397" data-name="Trazado 397" d="M249.085,152.39,88.62,242.42l58.729,35.088,156.965-89.2C283.083,173.965,267.59,170.178,249.085,152.39Z" transform="translate(80.331 260.58)" opacity="0.32" fill="url(#linear-gradient)"/>
      <path id="Trazado_398" data-name="Trazado 398" d="M353.347,224,194.46,317.272l37.01,20.485,156.965-89.2C367.2,234.185,371.737,241.731,353.347,224Z" transform="translate(278.149 394.421)" opacity="0.32" fill="url(#linear-gradient-2)"/>
      <path id="Trazado_399" data-name="Trazado 399" d="M333.511,173.78,133.54,300.648l121.016,68.857,166.805-94.678C400.13,260.482,351.873,191.625,333.511,173.78Z" transform="translate(164.288 300.559)" opacity="0.32" fill="url(#linear-gradient-3)"/>
      <path id="Trazado_400" data-name="Trazado 400" d="M173.7,223.287c1.549,2.525,122.221,70.119,122.221,70.119l83.546-46.851,37.871-22.063-46.564-27C360.015,191.3,295.605,154,295.605,154Z" transform="translate(239.348 263.589)" fill="#ffc65a"/>
      <path id="Trazado_401" data-name="Trazado 401" d="M216.3,247.455v46.794l121.417-70.291V178.57Z" transform="translate(318.969 309.511)" fill="#fa8e00"/>
      <path id="Trazado_402" data-name="Trazado 402" d="M173.7,178.15v46.708l122.221,70.177V248.24Z" transform="translate(239.348 308.726)" fill="#ff9d27"/>
      <path id="Trazado_403" data-name="Trazado 403" d="M242.11,168.89s16.468,24.1,11.075,48.4c0,0,22.665-15.837,28.69-42.2C281.76,174.944,257.517,174.743,242.11,168.89Z" transform="translate(367.208 291.419)" fill="#ffa84a"/>
      <path id="Trazado_404" data-name="Trazado 404" d="M436.686,189.053,277.57,99.97V220.154l159.116,91.579Z" transform="translate(433.484 162.606)" fill="#ffc3ca"/>
      <path id="Trazado_405" data-name="Trazado 405" d="M232.38,92.7l89.284,52.216V268.543L232.38,215.064Z" transform="translate(349.023 149.018)" fill="#ff876a"/>
      <path id="Trazado_406" data-name="Trazado 406" d="M243.57,57.9s.23,65.213-11.62,78.181l49.376,28.69a51.212,51.212,0,0,0,9.984-22.464c1.062-7.345,4.648-55.917,4.648-55.917Z" transform="translate(348.219 83.975)" fill="#ffc65a"/>
      <path id="Trazado_407" data-name="Trazado 407" d="M264.57,70.06s.229,65.213-11.62,78.181l49.376,28.69a51.212,51.212,0,0,0,9.984-22.465c1.2-7.115,4.791-55.889,4.791-55.889Z" transform="translate(387.469 106.703)" fill="#ffc65a"/>
      <path id="Trazado_408" data-name="Trazado 408" d="M186.241,16,374.277,124.564s4.3,162.444-42.777,204.189L147.05,221.738S193.7,137.962,186.241,16Z" transform="translate(189.538 5.663)" fill="#d7e1e3"/>
      <path id="Trazado_409" data-name="Trazado 409" d="M213.16,52.373,231.091,39.95l33.855,94.592-21.4,8.435Z" transform="translate(313.1 50.426)" fill="#ffc65a"/>
      <path id="Trazado_410" data-name="Trazado 410" d="M160.624,69.719l59.733-40.826L201.938,12.97,154.14,48.8Z" transform="translate(202.79 0)" fill="#ffc65a"/>
      <path id="Trazado_411" data-name="Trazado 411" d="M288.77,102.54V126.5l90.346,49.175v-21.8Z" transform="translate(454.417 167.409)" fill="#d7e1e3"/>
      <circle id="Elipse_265" data-name="Elipse 265" cx="8.32" cy="8.32" r="8.32" transform="translate(671.203 182.099)" fill="#e28133"/>
      <circle id="Elipse_266" data-name="Elipse 266" cx="8.32" cy="8.32" r="8.32" transform="translate(609.404 146.925)" fill="#e28133"/>
      <path id="Trazado_412" data-name="Trazado 412" d="M162.012,85.68s-1.32-8.923,0-12.366a74.852,74.852,0,0,0,2.094-13.025,3.615,3.615,0,0,1,4.189,2.267c1.262,2.869-1.348,10.386-1.348,10.386s7.4,15.378,0,22.35S162.012,85.68,162.012,85.68Z" transform="translate(216.407 88.272)" fill="#ffac99"/>
      <path id="Trazado_413" data-name="Trazado 413" d="M144.51,117.031,193.628,69.09s11.132,24.186,0,35.26l-45.072,44.814" transform="translate(184.791 104.89)" fill="#ffc3ca"/>
      <path id="Trazado_414" data-name="Trazado 414" d="M162.449,159.63s-6.8,9.41-6.226,14.919,9.21,14.775,11.161,18.706,2.5,5.738,0,8.607-23.641-15.579-24.129-18.534,2.869-14.345,2.869-14.345l-9.382,11.878L130,176.815,144.517,152.4" transform="translate(157.671 260.599)" fill="#ea7554"/>
      <path id="Trazado_415" data-name="Trazado 415" d="M158.447,191.25c-.574-.574-17.214-6.369-17.214-6.369s-7.861-8.205-7.66-11.3,3.1-15.521,6.054-15.407,3.271,16.554,3.271,16.554Z" transform="translate(164.341 271.383)" fill="#af4127"/>
      <path id="Trazado_416" data-name="Trazado 416" d="M149.19,164.742l2.152,25.075s5.422,3.959,6.742,3.615,5.308-1.377,5.365-2.008-1.922-17.731-1.348-18.161,8.865,13.054,11.476,13.341,22.465-11.275,20.571-15.665-11.476-2.094-16.239-2.123A16.612,16.612,0,0,1,162.99,158" transform="translate(193.538 271.065)" fill="#ea7554"/>
      <path id="Trazado_417" data-name="Trazado 417" d="M178.69,136.68l12.136,64.266s-7,9.152-32.076,8l-18.62-45.531" transform="translate(176.605 231.218)" fill="#ff876a"/>
      <path id="Trazado_418" data-name="Trazado 418" d="M199.25,103.428s18.706,27.284,12.939,71.468c-5.107,39.162-44.212,85.3-44.212,85.3S156.3,265.413,132,242.461l26.883-42.72s-26.194-60.651,4.734-99.211" transform="translate(161.409 163.652)" fill="#ff876a"/>
      <g id="Grupo_16" data-name="Grupo 16" transform="translate(411.643 178.847)" opacity="0.55">
        <path id="Trazado_419" data-name="Trazado 419" d="M173.381,100.09c-1.32-15.608,5.136-28.461,14.689-29.264s18.075,10.788,19.395,26.4-5.136,28.69-14.775,29.379S174.7,115.812,173.381,100.09Zm5.193-.43c1.033,12.279,7.345,22.178,13.771,21.632s10.988-11.476,9.956-23.641-7.345-22.178-13.771-21.632-11.017,11.476-9.984,23.756Z" transform="translate(-173.21 -70.786)" fill="#f2f2f2"/>
      </g>
      <path id="Trazado_420" data-name="Trazado 420" d="M174.31,92.051a2.869,2.869,0,0,1,5.451,0V97.56l.6-1.2a78.787,78.787,0,0,0,4.763-15.78c.66-3.5,5.738-1.922,5.25,1.463a54.763,54.763,0,0,1-1.664,7.861l.545-.23a3.586,3.586,0,0,1,4.59,2.525,5.078,5.078,0,0,1,0,2.582h.4a3.959,3.959,0,0,1,1.98,6.082,3.615,3.615,0,0,1,1.32,2.123,5.279,5.279,0,0,1-2.324,4.992c-1.894,1.549-3.93,3.586-5.738,5.25-2.238,2.18-4.791,4.361-6.914,6.14s-5.566-4.045-5.738-6a2.5,2.5,0,0,1-3.271-2.553A153,153,0,0,0,174.31,92.051Z" transform="translate(239.082 122.669)" fill="#ffac99"/>
      <path id="Trazado_421" data-name="Trazado 421" d="M177.658,90.862q1.922-4.017,3.558-8.177c.23-.574,1.176-.344.947.258q-1.664,4.275-3.672,8.406C178.232,91.952,177.371,91.436,177.658,90.862Z" transform="translate(246.637 129.682)" fill="#af594a"/>
      <path id="Trazado_422" data-name="Trazado 422" d="M179.023,80.54a89.883,89.883,0,0,1,12.624,13.944c3.529,5.738,17.673,21.317,23.5,16.612S231.3,97.439,231.3,97.439s14.718,10.128,13.2,20.686c0,0-13.083,26.739-33.482,20.829s-25.477-13.6-25.477-13.6l-3.07,17.386s-25.3,7.919-37.039-3.844c0,0-7.718-49.95-2.037-57.381" transform="translate(178.796 126.29)" fill="#ffc3ca"/>
      <path id="Trazado_423" data-name="Trazado 423" d="M172.18,78.524c.2.574.631,18.706-5.537,20.428s-16.64-2.582-19.337-8.32,1.176-24.042,10.874-25.1S170.458,73.245,172.18,78.524Z" transform="translate(188.451 98.067)" fill="#ffac99"/>
      <path id="Trazado_424" data-name="Trazado 424" d="M179.725,85.072c-4.045,2.869-1.492,7.976.23,11.333a17.386,17.386,0,0,1,1.807,8.263,10.845,10.845,0,0,0,2.64,7.287,28.864,28.864,0,0,1,3.443,5.509,81.68,81.68,0,0,1-27.227.344,211.127,211.127,0,0,1-22.178-2.869,13.34,13.34,0,0,1,1.061-4.562c1.75-3.988,4.619-6.14,3.931-10.845a21.948,21.948,0,0,1-.172-10.788c1.32-3.7,4.447-5.422,7.431-7.6a19.021,19.021,0,0,0,2.439-2.123l.631-1.062a52.848,52.848,0,0,1,5.48-9.3,16.1,16.1,0,0,1,8.779-4.5,26.137,26.137,0,0,1,20.083,4.59s5.279,5.078,3.615,10.529S183.369,82.6,179.725,85.072Z" transform="translate(173.446 94.876)" fill="#e28133"/>
      <path id="Trazado_425" data-name="Trazado 425" d="M172.953,141.3s-21.4,37.068-28.4,42.691l5.968,16.3S175.363,165.4,172.953,141.3Z" transform="translate(184.866 239.853)" fill="#ea7554"/>
      <path id="Trazado_426" data-name="Trazado 426" d="M141.569,165.013a116.711,116.711,0,0,0,11.161-46.077.991.991,0,0,1,1.98,0,119.209,119.209,0,0,1-11.476,47.081C142.745,167.165,141.024,166.161,141.569,165.013Z" transform="translate(179.096 196.286)" fill="#ea7554"/>
      <path id="Trazado_427" data-name="Trazado 427" d="M283.76,210.585l51.327-8-44.671,45.532" transform="translate(445.053 354.387)" fill="#ffc65a"/>
      <ellipse id="Elipse_267" data-name="Elipse 267" cx="15.235" cy="19.768" rx="15.235" ry="19.768" transform="translate(713.579 564.943)" fill="#d7e1e3"/>
      <path id="Trazado_428" data-name="Trazado 428" d="M231.447,346.079,412.482,241.962,400.117,205.87,218.45,310.389Z" transform="translate(322.987 360.536)" fill="#d7e1e3"/>
      <ellipse id="Elipse_268" data-name="Elipse 268" cx="15.235" cy="19.768" rx="15.235" ry="19.768" transform="translate(533.26 668.658)" fill="#d7e1e3"/>
      <ellipse id="Elipse_269" data-name="Elipse 269" cx="15.235" cy="19.768" rx="15.235" ry="19.768" transform="translate(533.26 668.658)" fill="#505a63" opacity="0.52"/>
      <path id="Trazado_429" data-name="Trazado 429" d="M314.285,202.58l-19.395,3.013s7.259,2.439,5.164,11.476Z" transform="translate(465.856 354.387)" fill="#895415"/>
    </g>
    <ellipse id="Elipse_270" data-name="Elipse 270" cx="71" cy="69.5" rx="71" ry="69.5" transform="translate(666 6505)" fill="#f26250"/>
    <ellipse id="Elipse_271" data-name="Elipse 271" cx="43.5" cy="42.5" rx="43.5" ry="42.5" transform="translate(509 5911)" fill="#ffb3a6"/>
    <ellipse id="Elipse_272" data-name="Elipse 272" cx="15.5" cy="15" rx="15.5" ry="15" transform="translate(1105 5700)" fill="#6e89fe"/>
    <ellipse id="Elipse_273" data-name="Elipse 273" cx="60.5" cy="58" rx="60.5" ry="58" transform="translate(1567 6318)" fill="#fdba45"/>
  </g>
</svg>
