<svg xmlns="http://www.w3.org/2000/svg" xmlns:xlink="http://www.w3.org/1999/xlink" width="1190" height="807" viewBox="0 0 1190 807">
  <defs>
    <linearGradient id="linear-gradient" y1="0.85" x2="1.23" y2="0.064" gradientUnits="objectBoundingBox">
      <stop offset="0" stop-color="#ffb3a6"/>
      <stop offset="1" stop-color="#dfccc8"/>
    </linearGradient>
    <linearGradient id="linear-gradient-2" x1="0.2" y1="0.762" x2="0.927" y2="-0.033" gradientUnits="objectBoundingBox">
      <stop offset="0" stop-color="#ffb3a6"/>
      <stop offset="0.676" stop-color="#caccce"/>
      <stop offset="1" stop-color="#ffb3a6"/>
    </linearGradient>
    <linearGradient id="linear-gradient-3" y1="0.5" x2="0.515" y2="0.479" gradientUnits="objectBoundingBox">
      <stop offset="0" stop-color="#f4d7b8"/>
      <stop offset="1" stop-color="#fff" stop-opacity="0"/>
    </linearGradient>
  </defs>
  <g id="Grupo_14" data-name="Grupo 14" transform="translate(-338 -1483)">
    <g id="Spotlight__Isometric_1_" data-name="Spotlight _Isometric (1)" transform="translate(474.876 1486.472)">
      <g id="Layer_2" data-name="Layer 2" transform="translate(7.056 10.111)">
        <path id="Trazado_301" data-name="Trazado 301" d="M444.96,587.484,24.607,339.043C11.228,331.628-.256,319.185,12.8,311.092L434.669,67.843c6.339-3.929,15.952-6.5,22.384-2.76L898.316,321.29c13.379,7.765,15.788,29.471,2.339,37.259L500.44,587.087A55.9,55.9,0,0,1,444.96,587.484Z" transform="translate(-7.056 61.054)" fill="#ffb3a6"/>
        <path id="Trazado_302" data-name="Trazado 302" d="M381.138,300.855l-72.858,44.557L207.87,268.578,355.433,177.57l25.7,62.216" transform="translate(261.82 214.107)" fill="url(#linear-gradient)"/>
        <path id="Trazado_303" data-name="Trazado 303" d="M496.3,224.595l-87.242,52.462L274.45,193l104.293-53.8" transform="translate(350.966 162.732)" fill="#f2bdb3"/>
        <path id="Trazado_304" data-name="Trazado 304" d="M293.343,272.37l-67.829,38.756L130.6,255.366l66.262-38.008a6.525,6.525,0,0,1,6.572,0l89.909,53.281a.982.982,0,0,1,0,1.731Z" transform="translate(158.36 266.192)" fill="#74abe2"/>
        <path id="Trazado_305" data-name="Trazado 305" d="M308.967,294.62l-67.829,38.756L146.13,277.593l66.356-37.984a6.526,6.526,0,0,1,6.572,0l89.909,53.281a.982.982,0,0,1,0,1.731Z" transform="translate(179.154 295.983)" fill="#74abe2"/>
        <path id="Trazado_306" data-name="Trazado 306" d="M274.361,195.78s25.144-.865,29.19,5.8,6.9,25.588,13.379,26.524,8.35-15.11,9.239-26.149-1.076-16.373-3.462-16.77-20.442-7.157-21.214-10.385,21.986.351,21.986.351l-.982-11.18-54.006,2.9Z" transform="translate(342.986 195.897)" fill="#f77819"/>
        <path id="Trazado_307" data-name="Trazado 307" d="M240.53,216.914l88.318-.164S323.843,183,311.306,166.393l-63.923-8.163" transform="translate(305.549 188.212)" fill="#f28830"/>
        <path id="Trazado_308" data-name="Trazado 308" d="M277.789,232.289s10.876,12.162,7.368,20.091-18.992,22.664-15.694,29.19,19.156-2.012,29.821-8.28S313.621,261.806,312.4,259.4s-6.526-23.389-4.07-26.032,13.753,20.325,13.753,20.325l6.081-12.513-33.7-43.036Z" transform="translate(343.675 241.649)" fill="#f77819"/>
        <path id="Trazado_309" data-name="Trazado 309" d="M226.54,111.8s-29.026,89.6-24.325,130.442,82.518,36.394,82.518,36.394l62.683,81.255a94.446,94.446,0,0,0,60.415-35.528s-20.115-28.278-34.382-42.569-52.977-64.484-54.591-79.711-19.273-72.273-37.166-81.652" transform="translate(253.558 126.045)" fill="#f99943"/>
        <path id="Trazado_310" data-name="Trazado 310" d="M264.077,238.213a301.725,301.725,0,0,1-34.967-71.969q-3.6-10.923-6.338-22.08a2.153,2.153,0,0,0-4.187,1.006,306.1,306.1,0,0,0,29.751,75.477q5.59,10.034,11.952,19.624C261.738,242.564,265.62,240.529,264.077,238.213Z" transform="translate(276.085 167.17)" fill="#f77819"/>
        <path id="Trazado_311" data-name="Trazado 311" d="M270.916,86.666s-22.08-12.092-30.406,14.408-7.906,27.482-10.432,29.354S189.24,146,189.24,146l21.892,13.1s26.453-4.842,32.114-9.964c8.584-7.765,13.215-21.05,13.215-21.05" transform="translate(236.875 88.706)" fill="#d7e1e3"/>
        <path id="Trazado_312" data-name="Trazado 312" d="M339.814,132.321c1.965-5.263,3.719-10.6,5.473-16a109.748,109.748,0,0,0,5.941-23.6c-1.4-3.766-6.456-6.643-10.011-7.485-4.467-1.076-9.052.842-13.589.748-5.918,0-10.6-2.339-16.115-4.023a30.055,30.055,0,0,0-17.285.8c-10.666,3.3-21.542,2.152-30.406-4.888-5.029-4-8.958-7.274-15.32-8.935-9.824-2.6-19.951-.748-26.43,7.508-5.824,7.461-7.017,17.238-.912,24.863a23.389,23.389,0,0,0,12.4,6.9c4.327,1.24,8.373,3.789,12.817,4.678h.491a99.148,99.148,0,0,1,12.513,1.684c5.216,1.544,10.057,4.14,15.18,5.988,6.806,2.339,13.4,1.5,20.4.608,8.911-1.123,13.636,1.637,20.536,6.713l1.24.865a29.822,29.822,0,0,0,16.185,4.3,39.319,39.319,0,0,0,6.9-.725Z" transform="translate(274.188 67.189)" fill="#6e89fe"/>
        <path id="Trazado_313" data-name="Trazado 313" d="M276.935,115.461c2.713,1.52,5.613,3.111,8.584,4.444a151.451,151.451,0,0,0,16.045.515,21.051,21.051,0,0,1,6.783-.117,2.83,2.83,0,0,1,2.526,3.672,5.941,5.941,0,0,1-4.888,3.625c-1.778.351-3.555.632-5.356.889a116.051,116.051,0,0,0,15.343,7.017c3.321,1.333,1.614,6.666-1.731,5.333l-3.6-1.45a64.8,64.8,0,0,1,5.684,4.21c2.2,1.848.842,6.315-2.339,5.029a91.22,91.22,0,0,1-12.583-6.245q3.7,2.947,7.578,5.684c2.947,2.058,0,6.783-3.041,4.678q-5.45-3.836-10.572-8.093c.772,1.59,1.52,3.2,2.2,4.842,1.4,3.3-3.555,5.918-4.958,2.6s-2.854-6.292-4.444-9.356l-.351-.164q-13.028-7.017-25.728-14.759c-3.087-1.848,0-6.572,3.041-4.678l3.929,2.339a3.275,3.275,0,0,1,1.544-2.035,2.783,2.783,0,0,1,2.339-4.257,2.924,2.924,0,0,1,4-3.719Z" transform="translate(332.693 130.547)" fill="#ffc285"/>
        <path id="Trazado_314" data-name="Trazado 314" d="M284.481,122.811c-3.368,3.158-7.368,6.245-12.256,4.982-.982-.257-.632-1.8.351-1.544,4.3,1.1,7.812-1.754,10.736-4.514C284.06,121.057,285.229,122.109,284.481,122.811Z" transform="translate(347.204 139.055)" fill="#6d320b"/>
        <path id="Trazado_315" data-name="Trazado 315" d="M278.976,123.646a118.7,118.7,0,0,0,12.677,5.052c.725.234.468,1.4-.257,1.146a121.361,121.361,0,0,1-12.958-5.169C277.736,124.371,278.274,123.318,278.976,123.646Z" transform="translate(355.866 141.822)" fill="#6d320b"/>
        <path id="Trazado_316" data-name="Trazado 316" d="M277.677,125.976a63.265,63.265,0,0,0,14.993,7.6c.7.257.468,1.4-.257,1.146a64.367,64.367,0,0,1-15.273-7.7C276.507,126.607,277.162,125.555,277.677,125.976Z" transform="translate(354.218 144.895)" fill="#6d320b"/>
        <path id="Trazado_317" data-name="Trazado 317" d="M275.232,127.133a70.021,70.021,0,0,0,11.274,7.952c.655.374,0,1.427-.561,1.053a71.6,71.6,0,0,1-11.508-8.116C273.852,127.508,274.648,126.642,275.232,127.133Z" transform="translate(350.675 146.38)" fill="#6d320b"/>
        <path id="Trazado_318" data-name="Trazado 318" d="M247.178,86.3l-4.233-.865a47.693,47.693,0,0,1-7.7-.748,22.1,22.1,0,0,0-12.677,3.742c-8.35,5.941-9.215,20.255-9.894,29.494-.327,4.467-.585,9.052-.655,13.683s.468,9.753.678,16.256v.281a56.252,56.252,0,0,0,58.333,11.3s-2.339-50.9-7.578-66.73A80.669,80.669,0,0,0,247.178,86.3Z" transform="translate(267.373 89.731)" fill="#d7e1e3"/>
        <path id="Trazado_319" data-name="Trazado 319" d="M238.814,88s36.979,47.083,88.412,62.917c0,0-3.392,18.992-11.391,26.2,0,0-69.747-31.6-85.816-59.807" transform="translate(291.477 94.178)" fill="#d7e1e3"/>
        <path id="Trazado_320" data-name="Trazado 320" d="M220.479,82.235s-6.713,19.437,5.684,28.231,29.213-9.59,24.606-26.9S228.361,65.582,220.479,82.235Z" transform="translate(276.273 70.285)" fill="#ffc285"/>
        <path id="Trazado_321" data-name="Trazado 321" d="M249.13,108.775a6.151,6.151,0,0,1-5.707-1.707c-1.824-1.848-1.661-4.467-1.684-6.876a8.958,8.958,0,0,0-4.046-7.952c-3.251-2.2-7.344-2.83-10.291-5.52a10.3,10.3,0,0,1-.865-.889,8.047,8.047,0,0,0,1.263.959c4.678,2.9,11.905,3.6,14.034,4.678s-1.333,9.987,2.666,13.87,13.449-20.442,7.976-27.061-23.53-14.361-31.365-3.368a28.276,28.276,0,0,0,.8,2.9,14.478,14.478,0,0,0,3.158,8.14c2.924,3.625,7.157,4.444,11.016,6.666a7.836,7.836,0,0,1,4.374,6.549,19.085,19.085,0,0,0,.725,6.759,7.274,7.274,0,0,0,8.233,3.906C250.23,109.734,249.855,108.611,249.13,108.775Z" transform="translate(279.547 69.263)" fill="#6e89fe"/>
        <path id="Trazado_322" data-name="Trazado 322" d="M255,180.547l39.762-23.366-70.8-46.241-37.587,14.9" transform="translate(233.046 124.894)" fill="#3129a3"/>
        <path id="Trazado_323" data-name="Trazado 323" d="M273.565,199.346c.655-2.994-19.2-58.894-19.2-58.894L172.5,93.93l25.027,63.713,76.062,45.7Z" transform="translate(214.462 102.118)" fill="#7878ce"/>
        <ellipse id="Elipse_239" data-name="Elipse 239" cx="4.912" cy="9.683" rx="4.912" ry="9.683" transform="matrix(0.903, -0.429, 0.429, 0.903, 428.905, 246.969)" fill="#8ec2fe"/>
        <path id="Trazado_324" data-name="Trazado 324" d="M216.236,92.34a391.666,391.666,0,0,0-3.906,45.8,1.169,1.169,0,1,0,2.339,0A386.362,386.362,0,0,1,218.5,92.971C218.575,91.474,216.236,90.843,216.236,92.34Z" transform="translate(267.791 98.844)" fill="#2c8f99"/>
        <path id="Trazado_325" data-name="Trazado 325" d="M241.41,112.412l-8.139-7.672,9.379,27.833Z" transform="translate(295.829 116.592)" fill="#4cc3d6"/>
        <path id="Trazado_326" data-name="Trazado 326" d="M190.13,132.935c-.187-.187-.4-.351-.585-.515a1.5,1.5,0,0,0,.374-1.076,2.169,2.169,0,0,0,.234-.3c.772-1.4-.4-3.251-1.24-4.678a2.175,2.175,0,0,0,.959-1.076,4.678,4.678,0,0,0-1.614-4.444h0c.748-1.614-1.006-3.181-2.1-4.163a14.244,14.244,0,0,0-3.6-2.339c-.374-1.8-.7-3.6-1.24-5.356-.374-1.24-1.38-2.339-2.807-1.871s-1.24,2.058-1.053,3.228a26.4,26.4,0,0,0,1.263,4.678,2.339,2.339,0,0,0-1.006,3.228,6.478,6.478,0,0,0,1.427,1.918,2.737,2.737,0,0,0-1.006,3.087,3.719,3.719,0,0,0,1.895,2.105,2.338,2.338,0,0,0-.444.561,2.2,2.2,0,0,0,.678,2.854,14.037,14.037,0,0,0,1.8,1.31,1.683,1.683,0,0,0-.234.374c-.421,1.146.421,2.339,1.1,3.134a11.2,11.2,0,0,0,3.158,2.6,13.379,13.379,0,0,0,4.117,1.8,1.4,1.4,0,0,0,1.5-.608C192.726,135.929,191.136,133.964,190.13,132.935Z" transform="translate(220.923 119.622)" fill="#ffc285"/>
        <path id="Trazado_327" data-name="Trazado 327" d="M438.123,357.41,316.358,290.563a14.9,14.9,0,0,1-7.718-13.051V54.307A14.9,14.9,0,0,1,331,41.4L452.625,111.7a14.9,14.9,0,0,1,7.461,12.911V344.359a14.9,14.9,0,0,1-21.963,13.051Z" transform="translate(396.744 29.098)" fill="#d7e1e3"/>
        <path id="Trazado_328" data-name="Trazado 328" d="M374.6,115.543v53.421c0,15.531-24.114,15.554-24.114,0V115.543C350.467,100.036,374.6,100.012,374.6,115.543Z" transform="translate(452.779 115.472)" fill="#56403d"/>
        <path id="Trazado_329" data-name="Trazado 329" d="M360.584,92.1v86.213c0,15.531-24.114,15.554-24.114,0V92.1C336.447,76.6,360.584,76.572,360.584,92.1Z" transform="translate(434.007 84.088)" fill="#ffa197"/>
        <path id="Trazado_330" data-name="Trazado 330" d="M343.964,65.4v132.36c0,15.531-24.114,15.554-24.114,0V65.4C319.85,49.872,343.964,49.849,343.964,65.4Z" transform="translate(411.754 48.315)" fill="#f2f2f2"/>
        <path id="Trazado_331" data-name="Trazado 331" d="M346.216,138.394l29.821,15.671c4.233,2.339.491,8.631-3.742,6.409L342.474,144.8C338.217,142.581,341.959,136.172,346.216,138.394Z" transform="translate(439.534 161.035)" fill="#f2f2f2"/>
        <path id="Trazado_332" data-name="Trazado 332" d="M323.857,136.734q41.61,22.313,84.085,42.99c4.3,2.082.538,8.49-3.742,6.409q-42.475-20.676-84.178-42.99C315.9,140.874,319.647,134.465,323.857,136.734Z" transform="translate(409.595 158.789)" fill="#f2f2f2"/>
        <path id="Trazado_333" data-name="Trazado 333" d="M214.41,252.985c.3,0,3.158-1.146.772-2.97A49.291,49.291,0,0,0,210.2,246.6" transform="translate(264.94 306.534)" fill="#e27825"/>
        <path id="Trazado_334" data-name="Trazado 334" d="M249.2,242.87s-2.339,8.865,0,13.613l-32.745,19.132L184.22,294.327V280.6" transform="translate(230.154 301.539)" fill="#ffe8bc"/>
        <path id="Trazado_335" data-name="Trazado 335" d="M251.6,242.28a7.6,7.6,0,0,1-.234,1.848l-65.654,37.259v13.776L251.317,256.9v1.637L183.16,297.97V279.259Z" transform="translate(228.735 300.749)" fill="#e27825"/>
        <path id="Trazado_336" data-name="Trazado 336" d="M305.487,274.4,237.658,313.16,142.65,257.376l66.309-38.008a6.526,6.526,0,0,1,6.572,0l89.909,53.281a.982.982,0,0,1,.047,1.754Z" transform="translate(174.494 268.883)" fill="#fdba45"/>
        <path id="Trazado_337" data-name="Trazado 337" d="M237.357,307.45S142.4,251.526,142.7,251.315s0-16.185,0-16.185l95.008,55.83Z" transform="translate(174.561 291.176)" fill="#e27825"/>
        <path id="Trazado_338" data-name="Trazado 338" d="M212.591,241.66a2.339,2.339,0,0,1,.982,1.707c0,1.146-1.123,1.707-1.544,1.965" transform="translate(267.39 299.919)" fill="#fdba45"/>
        <path id="Trazado_339" data-name="Trazado 339" d="M199.68,218.425c.3,0,3.158-1.146.772-2.97a49.3,49.3,0,0,0-4.982-3.415" transform="translate(245.217 260.26)" fill="#9a433a"/>
        <path id="Trazado_340" data-name="Trazado 340" d="M234.372,208.31s-2.339,8.865,0,13.613l-32.581,19.156L169.56,259.79V245.943" transform="translate(210.525 255.266)" fill="#ffe8bc"/>
        <path id="Trazado_341" data-name="Trazado 341" d="M236.907,207.72a7.6,7.6,0,0,1-.234,1.848l-65.654,37.166V260.51l65.607-38.265v1.637L168.47,263.316V244.605Z" transform="translate(209.066 254.476)" fill="#9a433a"/>
        <path id="Trazado_342" data-name="Trazado 342" d="M290.72,239.843,222.891,278.6,128,222.816l66.262-38.008a6.526,6.526,0,0,1,6.572,0l89.909,53.281a.982.982,0,0,1-.023,1.754Z" transform="translate(154.879 222.61)" fill="#f26250"/>
        <path id="Trazado_343" data-name="Trazado 343" d="M222.667,272.89s-94.961-55.924-94.657-56.134,0-16.185,0-16.185l95.008,55.784Z" transform="translate(154.892 244.902)" fill="#9a433a"/>
        <path id="Trazado_344" data-name="Trazado 344" d="M197.9,207.1a2.339,2.339,0,0,1,.982,1.707c0,1.146-1.123,1.707-1.544,1.965" transform="translate(247.721 253.646)" fill="#f26250"/>
        <path id="Trazado_345" data-name="Trazado 345" d="M163.874,76.97l-32-40.16s-24.138-23.506-47.527,0-7.672,42.943-7.672,42.943l43.294,47.925" transform="translate(79.244 11.651)" fill="#f26250"/>
        <path id="Trazado_346" data-name="Trazado 346" d="M107.313,68.417l46.779-24.886a2.339,2.339,0,0,1,3.462,2.9L142.888,91.737a8.046,8.046,0,0,1-3.859,4.678L91.5,121.815a2.5,2.5,0,0,1-3.532-2.994l15.694-46.1a7.625,7.625,0,0,1,3.649-4.3Z" transform="translate(101.118 34.073)" fill="#3b3b3b"/>
        <path id="Trazado_347" data-name="Trazado 347" d="M108.856,69.327l46.779-24.886a2.339,2.339,0,0,1,3.462,2.9L144.408,92.647a8.046,8.046,0,0,1-3.859,4.678L93.092,122.7a2.5,2.5,0,0,1-3.532-2.994l15.694-46.1A7.625,7.625,0,0,1,108.856,69.327Z" transform="translate(103.247 35.292)" fill="#727272"/>
        <ellipse id="Elipse_240" data-name="Elipse 240" cx="27.412" cy="12.116" rx="27.412" ry="12.116" transform="matrix(0.731, -0.683, 0.683, 0.731, 201.315, 128.324)" fill="#ffb94a"/>
        <path id="Trazado_348" data-name="Trazado 348" d="M78.211,98.357l11.2,7.391V54.292a5.824,5.824,0,0,1,2.994-5.075L130.7,27.885a3.228,3.228,0,0,1,4.818,2.924l.164,45.539,9.777,11.227V13.711a3.6,3.6,0,0,0-5.333-3.158l-59.9,33.189a3.906,3.906,0,0,0-2.011,3.532Z" transform="translate(88.212 -10.111)" fill="#636363"/>
        <ellipse id="Elipse_241" data-name="Elipse 241" cx="9.075" cy="11.882" rx="9.075" ry="11.882" transform="translate(164.673 75.713) rotate(-5.63)" fill="#636363"/>
        <ellipse id="Elipse_242" data-name="Elipse 242" cx="9.075" cy="11.882" rx="9.075" ry="11.882" transform="translate(162.044 75.969) rotate(-5.63)" fill="#727272"/>
        <path id="Trazado_349" data-name="Trazado 349" d="M99.039,176,34.227,209.517s-3.579,4.187,20.606,18.548l65.935-40.534" transform="translate(29.073 212.005)" fill="url(#linear-gradient-2)"/>
        <path id="Trazado_350" data-name="Trazado 350" d="M55.195,158.89c-2.5.3,9.356,45.048,17.285,53.258s18.524,6.2,24.746-3.158,11.695-47.223,11.695-47.223S113.668,151.873,55.195,158.89Z" transform="translate(56.942 185.728)" fill="#d7e1e3"/>
        <ellipse id="Elipse_243" data-name="Elipse 243" cx="27.061" cy="12.771" rx="27.061" ry="12.771" transform="translate(111.809 332.572)" fill="#2e6300"/>
        <path id="Trazado_351" data-name="Trazado 351" d="M61.831,175.634c6.526,7.461-.257,13.238.14,25s21.284,12.747,21.284,12.747c-1.123-9.613,15.835-16.373,15.156-27.482s-15.507-5.029-10.1-17.261,3.462-27.787-5.169-33.517c-6.409-4.257-13.706-13.659-17.074-18.244v3.929a34.827,34.827,0,0,1-6.011,20.746c-3.415,5.263-8.373,9.66-11.063,15.367a16.958,16.958,0,0,0-.725,1.824C45.716,168.617,56.171,169.272,61.831,175.634Z" transform="translate(47.592 132.847)" fill="#cec300"/>
        <path id="Trazado_352" data-name="Trazado 352" d="M55.7,119a13.388,13.388,0,0,1-.14,1.941,32.3,32.3,0,0,1,3.7,8.373c1.731,7.227-2.339,14.408-.772,21.682,1.357,6.292,6.128,11.016,8.537,16.864,2.994,7.2-.211,14.034-1.45,21.05-1.4,8.186,2.152,14.993,6.315,21.8.374.608,1.286,0,.912-.608a53,53,0,0,1-5.4-10.5,21.729,21.729,0,0,1-.538-11.695c1.31-6.409,3.906-12.7,1.684-19.226-2.058-6.011-6.853-10.689-8.677-16.794-2.2-7.391,2.035-14.782.585-22.22a35.318,35.318,0,0,0-4.678-10.385Z" transform="translate(57.887 135.685)" fill="#2e6300"/>
        <path id="Trazado_353" data-name="Trazado 353" d="M107.91,154.6c7.017-2.877,13.846-12.841,8.818-18.712s-3.766-14.782-3.766-14.782a11.344,11.344,0,0,1-5.988,6.151C92.823,132.15,91.56,140.313,91.256,146.6s7.227,19.811-15.39,27.061-3.789,34.593-3.789,34.593l8.771,1.637h0a94.8,94.8,0,0,1,19.834-9.519c13.519-5.029,8.49-16.981,2.526-23.9S100.986,157.48,107.91,154.6Z" transform="translate(70.162 138.511)" fill="#cfe217"/>
        <path id="Trazado_354" data-name="Trazado 354" d="M106.493,121.9c-3.532,5.216-4.233,11.531-5.964,17.472-1.871,6.432-6.034,11.367-9.356,17.051a26.945,26.945,0,0,0-3.321,8.467c-.632,3.274-.678,6.619-1.006,9.917a25.728,25.728,0,0,1-3.087,10.455,62.125,62.125,0,0,1-6.151,8.373c-3.766,4.678-7.625,9.683-8.4,15.624h1.123c.819-5.847,4.678-10.806,8.444-15.3s7.625-9.59,8.748-15.764c1.24-6.83.561-13.636,3.929-19.951,2.83-5.309,7.017-9.847,9.145-15.531,2.573-6.666,2.783-14.2,6.876-20.255C107.849,121.878,106.89,121.317,106.493,121.9Z" transform="translate(76.163 139.239)" fill="#2e6300"/>
        <path id="Trazado_355" data-name="Trazado 355" d="M74.18,201.374c-3.953-9.052-1.824-21.425,4.678-29.7,7.017-8.7,11.016-16.794,6.292-26.079a38.031,38.031,0,0,1-4.093-18.08c-7.017,14.151-13.846,19.179-12.3,26.9s-.257,11.18-4.935,23.132c-4.444,11.063,2.783,21.869,3.906,23.389Q70.836,201.28,74.18,201.374Z" transform="translate(67.029 147.08)" fill="#9abc0c"/>
        <path id="Trazado_357" data-name="Trazado 357" d="M537.323,119.836,137.669,54.018s-8.28-9.192-28.3,9.87S97.673,91.465,97.673,91.465l319.9,308.74A407.585,407.585,0,0,0,504.3,293.174C534.843,239.379,539.381,179.759,537.323,119.836Z" transform="translate(111.974 45.713)" fill="url(#linear-gradient-3)"/>
        <path id="Trazado_356" data-name="Trazado 356" d="M67.644,200.984h1.24c-3.415-8.7-5.122-18.033-.608-26.828,2.152-4.187,5.029-7.952,7.017-12.233a25.284,25.284,0,0,0,1.778-14.034,45.726,45.726,0,0,1,2.105-19.577c.234-.678-.842-.959-1.052-.281a44.791,44.791,0,0,0-2.339,16.77c.164,3.017.725,6.011.608,9.052a20.3,20.3,0,0,1-2.2,7.976c-2.128,4.4-5.169,8.3-7.274,12.724a26.617,26.617,0,0,0-2.339,15.039,47.527,47.527,0,0,0,3.064,11.391Z" transform="translate(69.636 147.258)" fill="#2e6300"/>
      </g>
    </g>
    <ellipse id="Elipse_246" data-name="Elipse 246" cx="63.5" cy="62" rx="63.5" ry="62" transform="translate(540 2166)" fill="#f26250"/>
    <ellipse id="Elipse_247" data-name="Elipse 247" cx="39" cy="38" rx="39" ry="38" transform="translate(338 1594)" fill="#ffb3a6"/>
    <ellipse id="Elipse_248" data-name="Elipse 248" cx="14" cy="13.5" rx="14" ry="13.5" transform="translate(985 1483)" fill="#6e89fe"/>
    <ellipse id="Elipse_249" data-name="Elipse 249" cx="54" cy="52" rx="54" ry="52" transform="translate(1420 2017)" fill="#fdba45"/>
  </g>
</svg>
