<svg xmlns="http://www.w3.org/2000/svg" xmlns:xlink="http://www.w3.org/1999/xlink" width="1190" height="807" viewBox="0 0 1190 807">
  <defs>
    <linearGradient id="linear-gradient" x1="0.675" y1="0.158" x2="0.411" y2="0.617" gradientUnits="objectBoundingBox">
      <stop offset="0" stop-color="gray"/>
      <stop offset="1" stop-color="#fff"/>
    </linearGradient>
  </defs>
  <g id="Grupo_15" data-name="Grupo 15" transform="translate(-398 -3489)">
    <g id="Creative_Process__Isometric" data-name="Creative Process _Isometric" transform="translate(522.682 3534.2)">
      <g id="Layer_2" data-name="Layer 2" transform="translate(15.066 24.8)">
        <path id="Trazado_359" data-name="Trazado 359" d="M22.723,277.266,348.809,87.616a15.413,15.413,0,0,1,15.413,0l487.6,279.053a15.413,15.413,0,0,1,0,26.739L540.047,573.44a50.328,50.328,0,0,1-50.328,0L22.771,303.933a15.413,15.413,0,0,1-.048-26.667Z" transform="translate(-15.066 60.531)" fill="#ffb3a6"/>
        <path id="Trazado_360" data-name="Trazado 360" d="M181.311,62.116,138.653,284.469l-6.18,32.125c-.866,4.545,6.084,6.468,6.949,1.924L182.176,96.045l6.18-32.125c.866-4.545-6.084-6.468-6.949-1.924Z" transform="translate(149.74 23.8)" fill="#42210b"/>
        <path id="Trazado_361" data-name="Trazado 361" d="M262.466,24.8H247.486L123,83.833s33.929,248.394,34.939,249.861,19.116,8.512,19.116,8.512" transform="translate(136.538 -24.8)" fill="#f7c19c"/>
        <path id="Trazado_362" data-name="Trazado 362" d="M81.91,194.516V128.75h79.616v65.766" transform="translate(78.823 121.207)" fill="#dfdde0"/>
        <ellipse id="Elipse_250" data-name="Elipse 250" cx="39.796" cy="19.501" rx="39.796" ry="19.501" transform="translate(160.757 296.222)" fill="#dfdde0"/>
        <ellipse id="Elipse_251" data-name="Elipse 251" cx="39.796" cy="20.776" rx="39.796" ry="20.776" transform="translate(160.757 229.182)" fill="#efefef"/>
        <ellipse id="Elipse_252" data-name="Elipse 252" cx="32.342" cy="15.846" rx="32.342" ry="15.846" transform="translate(168.211 234.111)" fill="#7acc92"/>
        <path id="Trazado_363" data-name="Trazado 363" d="M92.89,133.2l1.226,36.694a2.982,2.982,0,0,0,2.982,2.982h.168a2.982,2.982,0,0,0,2.982-2.982v-3.511a2.982,2.982,0,0,1,2.885-2.982h0a2.982,2.982,0,0,1,3.054,2.982v8.368a2.982,2.982,0,0,0,2.982,2.982h.529a2.982,2.982,0,0,0,2.982-2.982V159.338a2.982,2.982,0,0,1,2.885-2.982h0a2.982,2.982,0,0,0,2.886-2.982l-.914-18.01A87.6,87.6,0,0,1,92.89,133.2Z" transform="translate(94.246 127.458)" fill="#7acc92"/>
        <path id="Trazado_364" data-name="Trazado 364" d="M256.65,219.142V153.4h79.616v65.742" transform="translate(324.262 155.831)" fill="#dfdde0"/>
        <ellipse id="Elipse_253" data-name="Elipse 253" cx="39.796" cy="19.501" rx="39.796" ry="19.501" transform="translate(580.936 355.471)" fill="#dfdde0"/>
        <ellipse id="Elipse_254" data-name="Elipse 254" cx="39.796" cy="20.776" rx="39.796" ry="20.776" transform="translate(580.936 288.455)" fill="#efefef"/>
        <ellipse id="Elipse_255" data-name="Elipse 255" cx="32.342" cy="15.846" rx="32.342" ry="15.846" transform="translate(588.39 293.384)" fill="#f9551c"/>
        <path id="Trazado_365" data-name="Trazado 365" d="M267.63,157.85l1.226,36.694a2.982,2.982,0,0,0,2.982,2.982h.168a2.982,2.982,0,0,0,2.982-2.982v-3.463a2.982,2.982,0,0,1,2.886-2.982h0a2.982,2.982,0,0,1,3.054,2.982v8.368a2.982,2.982,0,0,0,2.982,2.982h.529a2.982,2.982,0,0,0,2.982-2.982V184.036a2.982,2.982,0,0,1,2.886-2.982h0a2.982,2.982,0,0,0,2.886-2.982l-.914-18.01a87.6,87.6,0,0,1-24.647-2.212Z" transform="translate(339.684 162.081)" fill="#f9551c"/>
        <path id="Trazado_366" data-name="Trazado 366" d="M81.91,232.012V166.27h79.616v65.742" transform="translate(78.823 173.908)" fill="#dfdde0"/>
        <ellipse id="Elipse_256" data-name="Elipse 256" cx="39.796" cy="19.501" rx="39.796" ry="19.501" transform="translate(160.757 386.418)" fill="#dfdde0"/>
        <ellipse id="Elipse_257" data-name="Elipse 257" cx="39.796" cy="20.776" rx="39.796" ry="20.776" transform="translate(160.757 319.402)" fill="#efefef"/>
        <ellipse id="Elipse_258" data-name="Elipse 258" cx="32.342" cy="15.846" rx="32.342" ry="15.846" transform="translate(168.211 327.073)" fill="#d7e1e3"/>
        <path id="Trazado_367" data-name="Trazado 367" d="M92.89,171.85l1.226,36.694a2.982,2.982,0,0,0,2.982,2.982h.168a2.982,2.982,0,0,0,2.982-2.982v-3.463a2.982,2.982,0,0,1,2.885-2.982h0a2.982,2.982,0,0,1,3.054,2.982v8.368a2.982,2.982,0,0,0,2.982,2.982h.529a2.982,2.982,0,0,0,2.982-2.982V198.036a2.982,2.982,0,0,1,2.885-2.982h0a2.982,2.982,0,0,0,2.886-2.982l-.914-18.01A87.6,87.6,0,0,1,92.89,171.85Z" transform="translate(94.246 181.745)" fill="#d7e1e3"/>
        <path id="Trazado_368" data-name="Trazado 368" d="M347.541,208c-11.494,6.709-19.718,11.205-37.391,21.3,13.394,8.128,23.757,15.606,25.248,16.5l40.541-24.046C372.862,220.023,361.849,215.045,347.541,208Z" transform="translate(399.407 232.521)" fill="url(#linear-gradient)"/>
        <path id="Trazado_369" data-name="Trazado 369" d="M319.16,195.37v33.712H373.7V195.37" transform="translate(412.063 214.781)" fill="#d7e1e3"/>
        <ellipse id="Elipse_259" data-name="Elipse 259" cx="27.268" cy="13.418" rx="27.268" ry="13.418" transform="translate(731.223 396.734)" fill="#311f1d"/>
        <ellipse id="Elipse_260" data-name="Elipse 260" cx="27.268" cy="13.418" rx="27.268" ry="13.418" transform="translate(731.223 431.745)" fill="#d7e1e3"/>
        <path id="Trazado_370" data-name="Trazado 370" d="M358.463,168.6c-5.747-2.4-13.73-10.2-20.68-9.955a81.492,81.492,0,0,0-4.208,20.68,187.735,187.735,0,0,0-.794,34.53q.241,3.847.625,7.671a6.106,6.106,0,0,0,.6,2.164q0,13.345,0,26.691a.842.842,0,1,0,1.683,0V224.721a37.822,37.822,0,0,0,7.815-3.607,26.45,26.45,0,0,0,10.989-13.8c4.4-12.263,1.611-25.922,5.8-38.065A10.351,10.351,0,0,1,358.463,168.6Z" transform="translate(430.566 163.187)" fill="#311f1d"/>
        <path id="Trazado_371" data-name="Trazado 371" d="M344.47,156.433a21.378,21.378,0,0,0-7.791,7.959,13.371,13.371,0,0,0-1.226,2.4l-.24.5h0a35.632,35.632,0,0,0-1.322,4.232,5.266,5.266,0,0,1,2.909-2.4,7.214,7.214,0,0,1,4.545-.409,19.069,19.069,0,0,1,4.184,2.212c1.948,1.178,3.823,2.4,5.747,3.727,9.041,5.747,21.064,6.324,28.038-2.044a5.131,5.131,0,0,1,.24-1.01C380.587,165.979,364.452,144.818,344.47,156.433Z" transform="translate(432.752 155.275)" fill="#fdba45"/>
        <path id="Trazado_372" data-name="Trazado 372" d="M372.4,172.822l1.13-.745a.77.77,0,0,0-.241-.649c-5.458-5.6-11.326-11.109-18.78-13.875a32.2,32.2,0,0,0-16.832-1.635c-.6.7-1.154,1.443-1.707,2.188a29.144,29.144,0,0,1,19.237,1.611,53.985,53.985,0,0,1,16.832,12.913A.818.818,0,0,0,372.4,172.822Z" transform="translate(435.674 158.723)" fill="#311f1d"/>
        <path id="Trazado_373" data-name="Trazado 373" d="M320.206,167.76a22.772,22.772,0,0,0-12.191,21.834c.649,16.087,27.148.385,34.193-13.2s8.152,5.8,8.152,5.8" transform="translate(396.325 176)" fill="#311f1d"/>
        <path id="Trazado_374" data-name="Trazado 374" d="M336.934,165.424a48.091,48.091,0,0,0-14.716,2.044,35.685,35.685,0,0,0-9.137,3.583,29.528,29.528,0,0,0,5.29,2.813A16.111,16.111,0,0,1,326.93,180a12.215,12.215,0,0,1,1.01,2.4c1.611,5.29.216,11.71,2.4,17.025s6.613,10.027,12.865,10.412c7.478.457,10.893-6.709,12.384-12.937s3.487-14.692,1.13-21.064C353.934,168.454,343.931,165.761,336.934,165.424Z" transform="translate(403.523 172.71)" fill="#fdba45"/>
        <path id="Trazado_375" data-name="Trazado 375" d="M339.964,190.018c-3.126-10.171-9.787-19.742-19.5-24.238H320.1l-.457.144-1.755.457c11.326,4.208,18.443,15.365,21.353,26.787,3.7,14.6,2.4,30.418,2.4,45.351a.794.794,0,0,0,1.563,0C343.234,222.576,344.605,205.48,339.964,190.018Z" transform="translate(410.279 173.219)" fill="#311f1d"/>
        <path id="Trazado_376" data-name="Trazado 376" d="M179.642,122.891l49.27,138.625c1.539,4.352,8.512,2.4,6.949-1.924l-49.27-138.6c-1.539-4.352-8.512-2.4-6.949,1.924Z" transform="translate(215.779 106.868)" fill="#42210b"/>
        <path id="Trazado_377" data-name="Trazado 377" d="M125.69,85.492,161.206,337.83l125.808-74.013L257.414,24.8Z" transform="translate(140.316 -24.8)" fill="#fff2f0"/>
        <path id="Trazado_378" data-name="Trazado 378" d="M140.03,200.419l11.831,4.376,127.227-76.033V122.63h-12.7L140.03,195.9Z" transform="translate(160.458 112.611)" fill="#363634"/>
        <path id="Trazado_379" data-name="Trazado 379" d="M150.426,155.237,146,289.269c-.144,4.641,7.07,4.641,7.214,0l4.352-133.936c.144-4.641-7.07-4.641-7.214,0Z" transform="translate(168.842 153.657)" fill="#42210b"/>
        <path id="Trazado_380" data-name="Trazado 380" d="M181.467,70.809l1.178-6.757a7.214,7.214,0,0,0-13.153-5.434,6.973,6.973,0,0,0-10.869,3.823l-1.539,5.242a6.228,6.228,0,0,0-2.669,3.1c-6.637,15.317-12.552,30.514-11.831,47.467a7.214,7.214,0,0,0,2.6,5.29l-.794,3.655a7.214,7.214,0,0,0,11.518,7.214l-.77,4.449c-1.563,8.993,11.807,13.009,13.923,3.847l2-8.632a5.555,5.555,0,0,0,5.8-5.194l7.214-51.1a7.67,7.67,0,0,0-2.6-6.973Z" transform="translate(163.963 17.921)" fill="#f26250"/>
        <path id="Trazado_381" data-name="Trazado 381" d="M203.91,135.959a165.629,165.629,0,0,0-16.832-61.63c-3.583-7.214-13.225-2.717-13.2,4.016a21.469,21.469,0,0,0-2.4-.673c-7.863-1.587-12.744,8.729-5.555,13.177a49.178,49.178,0,0,1,4.665,3.27,5.7,5.7,0,0,0-.385,7.839,39.724,39.724,0,0,1,5.146,40.325c-3.1,7.671,9.234,12.5,13.177,5.555l.144-.289c4.016,3.727,12.816,1.371,12.36-5.29v-.409a5.963,5.963,0,0,0,2.886-5.891Z" transform="translate(191.896 39.6)" fill="#7acc92"/>
        <path id="Trazado_382" data-name="Trazado 382" d="M175.239,102.354a7.021,7.021,0,0,0-5.314-2.741c-13.778-.842-25.032,5.507-25.272,20.487-.168,10.773,4.328,25.032,15.87,28.35,12.768,3.679,25.633-7.214,28.47-19.237a23.637,23.637,0,0,0-13.754-26.859Z" transform="translate(166.945 80.178)" fill="#d7e1e3"/>
        <path id="Trazado_383" data-name="Trazado 383" d="M328.357,64.946s10.268-4.809,15.341,5.627S209.354,297.037,209.354,297.037L200,287.419S266.391,142.4,328.357,64.946Z" transform="translate(244.691 30.035)" fill="#311f1d"/>
        <path id="Trazado_384" data-name="Trazado 384" d="M221.06,107.319s6.973-1.226,8.657-3.511,0-3.559,0-3.559,6.853-3.246,5.819-5.507S228.731,87,225.028,87,209.35,99.023,209.35,99.023" transform="translate(257.824 62.566)" fill="#eead97"/>
        <path id="Trazado_385" data-name="Trazado 385" d="M230.644,225.645a2.645,2.645,0,0,1-2.693,2.4c-2.4.192-25.537-9.739-31.26,3.727a3.823,3.823,0,0,0,1.515,4.665,91.375,91.375,0,0,0,37.993,13.8,21.377,21.377,0,0,0,13.682-1.731L248.8,223.12Z" transform="translate(239.656 253.759)" fill="#c24327"/>
        <path id="Trazado_386" data-name="Trazado 386" d="M248.811,224.023s-21.641-14.091-25.368-5.146c-2.91,6.9,22.916,26.979,32.414,28.567s10.8-8.392,10.8-8.392l-.313-16.375" transform="translate(277.3 243.623)" fill="#c24327"/>
        <path id="Trazado_387" data-name="Trazado 387" d="M228.7,142.3s-21.641,46.6-21.257,214.922c0,0,4.4,11.638,35.66,3.631l12.7-150.311L261.282,349.1s14.692,10.893,37.512-2.188c0,0-5.122-185.562-17.6-218.818" transform="translate(255.139 120.28)" fill="#6e89fe"/>
        <path id="Trazado_388" data-name="Trazado 388" d="M272.691,185.438c5.41-22.916,16.568-82.093,4.617-91.11-10.412-7.863-34.674.673-53.214,13.2-15.2,10.268-8.993,70.07-6.372,90.821C237.873,200.828,256.628,197.317,272.691,185.438Z" transform="translate(264.673 68.607)" fill="#d7e1e3"/>
        <path id="Trazado_389" data-name="Trazado 389" d="M247.028,92.51s7.6,3.751,10.556,16.832,7.935,46.361.12,55.306S236.5,159.839,235.51,158.9" transform="translate(294.569 70.305)" fill="#d7e1e3"/>
        <path id="Trazado_390" data-name="Trazado 390" d="M257.514,102.726s-28.038,14.716-28.855,14.933,13.249-10.845,13.249-10.845-1.611-19.742-16.279-15.1c0,0-47.25,36.285-20.944,59.057,12.576,10.869,52.9-6.42,52.9-6.42" transform="translate(240.079 68.193)" fill="#d7e1e3"/>
        <path id="Trazado_391" data-name="Trazado 391" d="M219.634,78.65s-.529,30.418,7.959,31.26a15.63,15.63,0,0,0,16.616-8.657" transform="translate(272.26 50.837)" fill="#eead97"/>
        <path id="Trazado_392" data-name="Trazado 392" d="M224.74,90.871V105.3s7.767,2.982,18.636-4.256V89.38" transform="translate(279.441 65.909)" fill="#eead97"/>
        <path id="Trazado_393" data-name="Trazado 393" d="M223.7,98.03s-10.34-10.749-3.583-19.91,14.428-4.376,14.428-4.376,1.587-3.992,9.618-4.809S255.3,76.148,258.592,78.1s8.079,7.911,8.488,12.72-6.781,31.861-15.173,33.857S232.839,129.842,223.7,98.03Z" transform="translate(269.731 37.109)" fill="#c24327"/>
        <path id="Trazado_394" data-name="Trazado 394" d="M236.112,157.4s-22.916-5.651-30.25,9.618,3.078,23.06-12.336,33.28-19.237,5.819-19.237,5.819,51.795,18.852,71.224-39.1" transform="translate(208.579 160.009)" fill="#f78f38"/>
        <path id="Trazado_395" data-name="Trazado 395" d="M223.133,184.506c2.068-3.775-.842-3.535-3.919-5.026s-3.559-3.174-5.434-5.843-2.4-2.4-5.555-2.645a9.306,9.306,0,0,1-4.545-1.323,10.363,10.363,0,0,1-2.645-3.15c-.192,7.406.818,13.057-9.306,19.766-8.416,5.579-13.37,6.781-16.159,6.757C183.505,195.063,205.074,198.717,223.133,184.506Z" transform="translate(210.377 174.259)" fill="#f9551c"/>
      </g>
    </g>
    <ellipse id="Elipse_261" data-name="Elipse 261" cx="63.5" cy="62" rx="63.5" ry="62" transform="translate(600 4172)" fill="#f26250"/>
    <ellipse id="Elipse_262" data-name="Elipse 262" cx="39" cy="38" rx="39" ry="38" transform="translate(398 3600)" fill="#ffb3a6"/>
    <ellipse id="Elipse_263" data-name="Elipse 263" cx="14" cy="13.5" rx="14" ry="13.5" transform="translate(1045 3489)" fill="#6e89fe"/>
    <ellipse id="Elipse_264" data-name="Elipse 264" cx="54" cy="52" rx="54" ry="52" transform="translate(1480 4023)" fill="#fdba45"/>
  </g>
</svg>
